<svg width="100" height="100" viewBox="0 0 100 100" fill="none" xmlns="http://www.w3.org/2000/svg">
  <path d="M77.7,50.2c0.9-0.9,1.6-2,2-3.2c0.5-1.5,0.5-3.1,0-4.6c-0.3-1-0.9-1.9-1.7-2.6c0.3-0.9,0.4-1.9,0.4-2.9 c0-1.7-0.5-3.4-1.5-4.8c-1-1.4-2.4-2.5-4-3.1c-0.2-2.1-1.2-4-2.8-5.4c-1.6-1.4-3.6-2.2-5.7-2.1c-2,0-3.9,0.7-5.5,1.9 c-1.1-1.2-2.5-2.1-4-2.7c-2.1-0.7-4.4-0.6-6.4,0.2c-1.5,0.6-2.7,1.5-3.7,2.7c-1.2-0.7-2.6-1.1-4-1.1c-4.1,0-7.4,3.3-7.4,7.4 c0,0.7,0.1,1.3,0.3,2c-2.7,0.5-4.9,2.7-5.4,5.4c-1.6,0.2-3.2,0.8-4.4,1.8c-1.4,1.1-2.5,2.6-3,4.3c-0.5,1.7-0.4,3.5,0.3,5.1 c0.5,1.2,1.4,2.3,2.5,3.1c-1.4,2.6-1.3,5.8,0.3,8.3c1.3,2.1,3.5,3.6,6,4.1c0.5,3.3,3.1,5.9,6.4,6.5c0.4,0.1,0.8,0.1,1.2,0.1 c2.5,0,4.9-1.2,6.4-3.2c1.3,0.8,2.7,1.2,4.2,1.2c1.9,0,3.7-0.6,5.2-1.8c0.9-0.7,1.6-1.6,2.1-2.6c1,0.7,2.2,1.2,3.4,1.3 c1.2,0.1,2.5,0,3.7-0.5c1.6-0.6,2.9-1.7,3.8-3.1c2.8,0.8,5.7,0,7.7-2c2-2,2.7-4.9,2-7.7C76,51.8,76.9,51.1,77.7,50.2z" fill="#4B9FE1" fillOpacity="0.8"/>
  <path d="M38.8,37.3c0,0-0.9-3.6,2.7-3.6c3.6,0,2.7,3.6,2.7,3.6" stroke="#FFB6C1" strokeWidth="1.5" strokeLinecap="round"/>
  <path d="M56.1,37.3c0,0-0.9-3.6,2.7-3.6c3.6,0,2.7,3.6,2.7,3.6" stroke="#FFB6C1" strokeWidth="1.5" strokeLinecap="round"/>
  <path d="M60,45c-3.3,6.7-16.7,6.7-20,0" stroke="#FFB6C1" strokeWidth="1.5" strokeLinecap="round"/>
  <path d="M25,65c0,0,5,10,25,10s25-10,25-10" stroke="#4B9FE1" strokeWidth="2" strokeLinecap="round" strokeDasharray="3 3"/>
</svg> 