<svg xmlns="http://www.w3.org/2000/svg" width="100" height="100" fill="none"><path fill="#4B9FE1" d="M77.7 50.2c.9-.9 1.6-2 2-3.2.5-1.5.5-3.1 0-4.6-.3-1-.9-1.9-1.7-2.6.3-.9.4-1.9.4-2.9 0-1.7-.5-3.4-1.5-4.8s-2.4-2.5-4-3.1c-.2-2.1-1.2-4-2.8-5.4s-3.6-2.2-5.7-2.1c-2 0-3.9.7-5.5 1.9-1.1-1.2-2.5-2.1-4-2.7-2.1-.7-4.4-.6-6.4.2-1.5.6-2.7 1.5-3.7 2.7-1.2-.7-2.6-1.1-4-1.1-4.1 0-7.4 3.3-7.4 7.4 0 .7.1 1.3.3 2-2.7.5-4.9 2.7-5.4 5.4-1.6.2-3.2.8-4.4 1.8-1.4 1.1-2.5 2.6-3 4.3s-.4 3.5.3 5.1c.5 1.2 1.4 2.3 2.5 3.1-1.4 2.6-1.3 5.8.3 8.3 1.3 2.1 3.5 3.6 6 4.1.5 3.3 3.1 5.9 6.4 6.5.4.1.8.1 1.2.1 2.5 0 4.9-1.2 6.4-3.2q1.95 1.2 4.2 1.2c1.9 0 3.7-.6 5.2-1.8.9-.7 1.6-1.6 2.1-2.6 1 .7 2.2 1.2 3.4 1.3s2.5 0 3.7-.5c1.6-.6 2.9-1.7 3.8-3.1 2.8.8 5.7 0 7.7-2s2.7-4.9 2-7.7c-.1-.4.8-1.1 1.6-2"/><path stroke="#FFB6C1" d="M38.8 37.3s-.9-3.6 2.7-3.6 2.7 3.6 2.7 3.6M56.1 37.3s-.9-3.6 2.7-3.6 2.7 3.6 2.7 3.6M60 45c-3.3 6.7-16.7 6.7-20 0"/><path stroke="#4B9FE1" d="M25 65s5 10 25 10 25-10 25-10"/></svg>